<svg width="53" height="63" viewBox="0 0 53 63" fill="none" xmlns="http://www.w3.org/2000/svg">
<circle cx="47" cy="57" r="6" fill="#CCCCCC"/>
<path d="M7.5 0C11.4741 0 14.7241 3.09105 14.9814 7H15V23C15.5 29.5 18.8083 27.4799 20 26.5L27 19.5L27.0146 19.5146C28.0744 18.5724 29.4704 18 31 18C34.3137 18 37 20.6863 37 24C37 25.5296 36.4266 26.9246 35.4844 27.9844L35.5 28L25.9727 37.2939C23.9704 39.9432 23.4682 41.7967 26.5 45L34 52.5L33.9844 52.5146C35.2207 53.6137 36 55.2157 36 57C36 60.3137 33.3137 63 30 63C28.2157 63 26.6137 62.2207 25.5146 60.9844L25.5 61L18.9902 53.9883C18.9936 53.9921 18.9967 53.9961 19 54L18.9834 53.9814L17.4307 52.3086C15.4707 50.4181 14.9848 51.1486 15 54V56H14.9814C14.7241 59.9089 11.4741 63 7.5 63C3.52593 63 0.275917 59.9089 0.0185547 56H0V7H0.0185547C0.275917 3.09105 3.52593 0 7.5 0Z" fill="url(#paint0_linear_2_129)"/>
<defs>
<linearGradient id="paint0_linear_2_129" x1="18.5" y1="0" x2="18.5" y2="63" gradientUnits="userSpaceOnUse">
<stop stop-color="#CCCCCC"/>
<stop offset="1" stop-color="#666666"/>
</linearGradient>
</defs>
</svg>
